<?xml version="1.0" encoding="utf-8"?>
<!-- Generator: Adobe Illustrator 24.2.0, SVG Export Plug-In . SVG Version: 6.00 Build 0)  -->
<svg version="1.1" id="Isolation_Mode" xmlns="http://www.w3.org/2000/svg" xmlns:xlink="http://www.w3.org/1999/xlink" x="0px"
	 y="0px" viewBox="0 0 44.7 66.2" style="enable-background:new 0 0 44.7 66.2;" xml:space="preserve">
<style type="text/css">
	.st0{fill:#EBEBEB;}
	.st1{fill:#BCBCBC;}
</style>
<g>
	<g>
		<polyline class="st0" points="172.3,64.7 195.5,64.7 215.5,47.1 215.5,19.1 195.5,1.5 172.3,1.5 		"/>
		<polygon class="st1" points="196.1,66.2 172.3,66.2 172.3,63.2 195,63.2 214,46.4 214,19.8 195,3 172.3,3 172.3,0 196.1,0 
			217,18.4 217,47.8 		"/>
	</g>
	<g>
		<circle class="st1" cx="202.9" cy="33.1" r="3.3"/>
	</g>
</g>
<g>
	<circle class="st1" cx="83.3" cy="33.1" r="3.3"/>
</g>
<g>
	<polygon class="st0" points="129,63.2 148.1,46.4 148.1,46 106.4,46 106.4,64.7 106.4,64.7 106.4,63.2 	"/>
	<polygon class="st1" points="149.6,46 148.1,46 148.1,46.4 129,63.2 106.4,63.2 106.4,64.7 106.4,66.2 130.1,66.2 151.1,47.8 
		151.1,46 	"/>
	<polygon class="st0" points="22.6,3 0,3 0,1.5 0,1.5 0,20.1 41.7,20.1 41.7,19.8 	"/>
	<polygon class="st1" points="0,0 0,1.5 0,3 22.6,3 41.7,19.8 41.7,20.1 43.2,20.1 44.7,20.1 44.7,18.4 23.8,0 	"/>
	<rect x="52.7" y="20.1" class="st0" width="41.7" height="25.9"/>
	<polygon class="st1" points="94.4,20.1 94.4,46 95.9,46 97.4,46 97.4,20.1 95.9,20.1 	"/>
</g>
</svg>
